<?xml version="1.0" encoding="UTF-8" standalone="no"?>
<!-- Generator: Adobe Illustrator 19.0.0, SVG Export Plug-In . SVG Version: 6.00 Build 0)  -->

<svg
   xmlns:dc="http://purl.org/dc/elements/1.1/"
   xmlns:cc="http://creativecommons.org/ns#"
   xmlns:rdf="http://www.w3.org/1999/02/22-rdf-syntax-ns#"
   xmlns:svg="http://www.w3.org/2000/svg"
   xmlns="http://www.w3.org/2000/svg"
   xmlns:sodipodi="http://sodipodi.sourceforge.net/DTD/sodipodi-0.dtd"
   xmlns:inkscape="http://www.inkscape.org/namespaces/inkscape"
   version="1.1"
   id="Layer_1"
   x="0px"
   y="0px"
   viewBox="0 0 512 512"
   style="enable-background:new 0 0 512 512;"
   xml:space="preserve"
   sodipodi:docname="fullscreen (3).svg"
   inkscape:version="0.92.3 (2405546, 2018-03-11)"><metadata
   id="metadata59"><rdf:RDF><cc:Work
       rdf:about=""><dc:format>image/svg+xml</dc:format><dc:type
         rdf:resource="http://purl.org/dc/dcmitype/StillImage" /></cc:Work></rdf:RDF></metadata><defs
   id="defs57" /><sodipodi:namedview
   pagecolor="#ffffff"
   bordercolor="#666666"
   borderopacity="1"
   objecttolerance="10"
   gridtolerance="10"
   guidetolerance="10"
   inkscape:pageopacity="0"
   inkscape:pageshadow="2"
   inkscape:window-width="1855"
   inkscape:window-height="1019"
   id="namedview55"
   showgrid="false"
   inkscape:zoom="1.84375"
   inkscape:cx="371.31732"
   inkscape:cy="293.87551"
   inkscape:window-x="65"
   inkscape:window-y="32"
   inkscape:window-maximized="1"
   inkscape:current-layer="Layer_1" />
<circle
   style="fill:#5ED1B3;"
   cx="255.991"
   cy="255.991"
   r="255.991"
   id="circle2" />

<path
   style="fill:#D9D9DD;"
   d="M353.169,237.021l-76.248,8.435c-2.38,0.262-4.55-0.49-6.265-2.17  c-1.715-1.68-2.503-3.833-2.275-6.213l6.895-76.405c0.28-3.045,2.153-5.513,5.023-6.563c2.87-1.05,5.915-0.403,8.085,1.732  l24.133,23.643l51.8-52.868c5.688-5.793,15.103-5.898,20.895-0.21l0,0c5.81,5.705,5.915,15.103,0.21,20.913l-51.8,52.85  l24.115,23.643c2.188,2.135,2.905,5.163,1.89,8.05C358.629,234.746,356.214,236.689,353.169,237.021z"
   id="path6" />
<path
   style="fill:#F8F8F8;"
   d="M270.166,242.761c-1.365-1.592-1.995-3.535-1.785-5.688l6.895-76.405  c0.28-3.045,2.153-5.513,5.023-6.563c2.87-1.05,5.898-0.403,8.085,1.732l24.133,23.643l51.8-52.868  c5.688-5.793,15.103-5.898,20.895-0.21L270.166,242.761z"
   id="path8" />
<path
   style="fill:#D9D9DD;"
   d="M237.021,158.831l8.435,76.248c0.262,2.38-0.49,4.55-2.17,6.265c-1.68,1.697-3.833,2.503-6.213,2.275  l-76.405-6.895c-3.045-0.28-5.513-2.153-6.563-5.023c-1.05-2.87-0.403-5.915,1.732-8.103l23.643-24.115l-52.868-51.8  c-5.793-5.705-5.898-15.103-0.21-20.913l0,0c5.705-5.793,15.103-5.898,20.913-0.193l52.85,51.8l23.643-24.115  c2.135-2.188,5.163-2.905,8.05-1.908C234.746,153.353,236.689,155.786,237.021,158.831z"
   id="path10" />
<g
   id="g16">
	<path
   style="fill:#F8F8F8;"
   d="M242.761,241.816c-1.592,1.383-3.535,1.995-5.688,1.803l-76.405-6.895   c-3.045-0.28-5.513-2.153-6.563-5.04c-1.05-2.853-0.403-5.898,1.732-8.085l23.643-24.115l-52.868-51.8   c-5.793-5.705-5.898-15.103-0.21-20.913L242.761,241.816z"
   id="path12" />
	<path
   style="fill:#F8F8F8;"
   d="M158.831,274.979l76.248-8.435c2.38-0.262,4.55,0.49,6.265,2.17c1.715,1.68,2.503,3.815,2.293,6.213   l-6.913,76.405c-0.28,3.045-2.153,5.513-5.023,6.563c-2.87,1.05-5.898,0.402-8.085-1.733l-24.133-23.643l-51.8,52.85   c-5.688,5.81-15.085,5.915-20.895,0.21l0,0c-5.81-5.688-5.898-15.085-0.21-20.895l51.8-52.85l-24.115-23.643   c-2.188-2.135-2.888-5.163-1.89-8.05C153.371,277.254,155.786,275.311,158.831,274.979z"
   id="path14" />
</g>
<path
   style="fill:#D9D9DD;"
   d="M241.834,269.239c1.365,1.592,1.995,3.535,1.803,5.688l-6.913,76.405  c-0.28,3.045-2.153,5.513-5.023,6.563c-2.87,1.05-5.898,0.402-8.085-1.733l-24.133-23.643l-51.8,52.868  c-5.688,5.793-15.103,5.898-20.895,0.192L241.834,269.239z"
   id="path18" />
<path
   style="fill:#F8F8F8;"
   d="M274.979,353.169l-8.435-76.248c-0.262-2.38,0.49-4.55,2.17-6.265  c1.68-1.715,3.815-2.503,6.213-2.275l76.405,6.895c3.045,0.28,5.513,2.153,6.563,5.023c1.05,2.87,0.402,5.915-1.733,8.085  l-23.643,24.133l52.85,51.8c5.81,5.688,5.915,15.103,0.21,20.895l0,0c-5.688,5.81-15.085,5.915-20.895,0.21l-52.85-51.8  l-23.643,24.115c-2.152,2.188-5.163,2.905-8.05,1.89C277.254,358.629,275.311,356.214,274.979,353.169z"
   id="path20" />
<path
   style="fill:#D9D9DD;"
   d="M269.239,270.184c1.592-1.383,3.535-2.013,5.688-1.803l76.405,6.895  c3.045,0.28,5.513,2.153,6.563,5.023c1.05,2.87,0.402,5.898-1.733,8.085l-23.643,24.133l52.868,51.8  c5.793,5.688,5.898,15.103,0.192,20.895L269.239,270.184z"
   id="path22" />
<g
   id="g24">
</g>
<g
   id="g26">
</g>
<g
   id="g28">
</g>
<g
   id="g30">
</g>
<g
   id="g32">
</g>
<g
   id="g34">
</g>
<g
   id="g36">
</g>
<g
   id="g38">
</g>
<g
   id="g40">
</g>
<g
   id="g42">
</g>
<g
   id="g44">
</g>
<g
   id="g46">
</g>
<g
   id="g48">
</g>
<g
   id="g50">
</g>
<g
   id="g52">
</g>
</svg>